Patient4_TMGait_0pt2_03_left_18_GRF.mot
version=1
nRows=38
nColumns=19
inDegrees=no
endheader
time	F1x	F1y	F1z	M1x	M1y	M1z	F2x	F2y	F2z	M2x	M2y	M2z	EC1x	EC1y	EC1z	EC2x	EC2y	EC2z
37.54	4.3014	-6.9488	-1.105	1.9939	1.5181	-5.7827	-12.2599	850.7005	-44.3356	301.9469	52.0874	873.1903	-0.0592	0.0182	-0.0073	-0.0462	0.0165	0.9585
37.5614	2.8623	-4.699	-0.78401	1.3511	1.0136	-3.8066	-15.6983	858.4788	-43.7164	304.8504	52.0255	879.9378	-0.0592	0.0182	-0.0073	-0.0462	0.0165	0.9585
37.5827	1.6467	-2.7722	-0.50195	0.79722	0.58145	-2.1269	-18.2442	865.7315	-43.0304	307.5163	51.506	885.479	-0.0592	0.0182	-0.0073	-0.0462	0.0165	0.9585
37.6041	0.72225	-1.2823	-0.27749	0.36737	0.2487	-0.84355	-19.4981	870.469	-42.2612	309.2136	50.3981	887.7974	-0.0592	0.0182	-0.0073	-0.0462	0.0165	0.9585
37.6254	0.082069	-0.23843	-0.10883	0.064825	0.0098435	0.038295	-19.3475	870.5081	-41.3691	309.1541	48.6453	884.7956	-0.0592	0.0182	-0.0073	-0.0462	0.0165	0.9585
37.6468	-0.32054	0.40521	0.012512	-0.12189	-0.15257	0.56103	-17.9098	864.1259	-40.2975	306.7268	46.2562	874.9144	-0.0592	0.0182	-0.0073	-0.0462	0.0165	0.9585
37.6681	-0.54462	0.70695	0.097432	-0.20783	-0.25837	0.77697	-15.422	850.6803	-38.9957	301.7189	43.2915	857.7004	-0.0592	0.0182	-0.0073	-0.0462	0.0165	0.9585
37.6895	-0.64653	0.71796	0.15657	-0.20543	-0.32617	0.7286	-12.1578	830.9044	-37.452	294.4133	39.8622	834.054	-0.0592	0.0182	-0.0073	-0.0462	0.0165	0.9585
37.7109	-0.6731	0.47086	0.19588	-0.12064	-0.3684	0.43956	-8.3888	806.7567	-35.734	285.5312	36.1531	806.057	-0.0592	0.0182	-0.0073	-0.0462	0.0165	0.9585
37.7322	-0.6562	-0.017563	0.21686	0.045502	-0.39035	-0.0827	-4.371	780.9619	-33.9819	276.0621	32.4142	776.4991	-0.0592	0.0182	-0.0073	-0.0462	0.0165	0.9585
37.7536	-0.61329	-0.73992	0.22094	0.29267	-0.39322	-0.83874	-0.33281	756.4422	-32.3717	267.0606	28.9148	748.3066	-0.0592	0.0182	-0.0073	-0.0462	0.0165	0.9585
37.7749	-0.5497	-1.6788	0.20623	0.61675	-0.37199	-1.8229	3.5288	735.808	-31.0614	259.4682	25.8879	724.0533	-0.0592	0.0182	-0.0073	-0.0462	0.0165	0.9585
37.7963	-0.45794	-2.7793	0.16545	1	-0.31132	-2.9904	7.0672	720.975	-30.1456	253.9783	23.4802	705.5993	-0.0592	0.0182	-0.0073	-0.0462	0.0165	0.9585
37.8176	-0.31753	-3.9174	0.089136	1.3977	-0.18819	-4.2191	10.2034	712.9038	-29.6411	250.9439	21.7302	693.8471	-0.0592	0.0182	-0.0073	-0.0462	0.0165	0.9585
37.839	-0.099518	-4.8625	-0.034139	1.7236	0.024676	-5.2664	12.9245	711.5003	-29.5111	250.3402	20.5937	688.6646	-0.0592	0.0182	-0.0073	-0.0462	0.0165	0.9585
37.8604	0.22561	-5.2311	-0.21524	1.8363	0.35174	-5.7218	15.2607	715.6797	-29.6999	251.7827	19.9863	688.9658	-0.0592	0.0182	-0.0073	-0.0462	0.0165	0.9585
37.8817	0.67821	-4.4541	-0.4608	1.5297	0.80463	-4.9696	17.2561	723.6221	-30.1606	254.6143	19.8205	692.9833	-0.0592	0.0182	-0.0073	-0.0462	0.0165	0.9585
37.9031	1.2586	-1.7758	-0.7658	0.53081	1.3734	-2.182	18.9553	733.1614	-30.8629	258.0457	20.0214	698.6432	-0.0592	0.0182	-0.0073	-0.0462	0.0165	0.9585
37.9244	1.9338	3.7173	-1.1024	-1.4882	2.0109	3.6535	20.3981	742.1723	-31.7696	261.2967	20.5104	703.9361	-0.0592	0.0182	-0.0073	-0.0462	0.0165	0.9585
37.9458	2.6152	12.999	-1.4046	-4.8746	2.6106	13.627	21.6267	748.7965	-32.8309	263.6808	21.1979	707.1307	-0.0592	0.0182	-0.0073	-0.0462	0.0165	0.9585
37.9671	3.1302	26.9009	-1.557	-9.9198	2.9846	28.6864	22.6668	751.5385	-33.9714	264.6435	21.9838	706.8643	-0.0592	0.0182	-0.0073	-0.0462	0.0165	0.9585
37.9885	3.1936	45.7616	-1.3883	-16.7291	2.84	49.2586	23.4877	749.2774	-35.0789	263.7714	22.7655	702.152	-0.0592	0.0182	-0.0073	-0.0462	0.0165	0.9585
38.0099	2.3987	68.917	-0.66939	-25.0369	1.7706	74.6968	23.9772	741.2785	-36.0124	260.7987	23.4545	692.3879	-0.0592	0.0182	-0.0073	-0.0462	0.0165	0.9585
38.0312	0.46315	94.3183	0.84115	-34.0702	-0.60219	102.8542	23.985	727.2396	-36.6338	255.6229	23.9875	677.3683	-0.0592	0.0182	-0.0073	-0.0462	0.0165	0.9585
38.0526	-2.2835	119.1736	3.2088	-42.7951	-4.2384	130.7236	23.4275	707.4631	-36.8635	248.367	24.3399	657.4031	-0.0592	0.0182	-0.0073	-0.0462	0.0165	0.9585
38.0739	-5.366	141.7662	6.0493	-50.5996	-8.5459	156.4151	22.3734	683.0639	-36.7056	239.4508	24.5112	633.4887	-0.0592	0.0182	-0.0073	-0.0462	0.0165	0.9585
38.0953	-8.499	162.0844	8.9008	-57.5046	-12.917	179.8972	21.0108	655.7361	-36.1942	229.504	24.4818	607.1035	-0.0592	0.0182	-0.0073	-0.0462	0.0165	0.9585
38.1166	-11.5783	180.8793	11.4574	-63.808	-16.9737	201.9452	19.555	627.2157	-35.3567	219.1708	24.2121	579.755	-0.0592	0.0182	-0.0073	-0.0462	0.0165	0.9585
38.138	-14.5077	198.8293	13.5751	-69.7812	-20.5106	223.1651	18.186	598.9247	-34.2596	208.9791	23.7007	552.6732	-0.0592	0.0182	-0.0073	-0.0462	0.0165	0.9585
38.1594	-17.0781	216.3176	15.2858	-75.593	-23.4702	243.7624	17.0114	571.8892	-33.037	199.3061	23.026	526.747	-0.0592	0.0182	-0.0073	-0.0462	0.0165	0.9585
38.1807	-19.0204	233.4915	16.7259	-81.3309	-25.8852	263.6565	16.0705	546.7912	-31.8428	190.3971	22.3049	502.5722	-0.0592	0.0182	-0.0073	-0.0462	0.0165	0.9585
38.2021	-20.1076	250.3398	18.0139	-87.0267	-27.7869	282.6074	15.3711	524.0186	-30.7788	182.3886	21.6212	480.4981	-0.0592	0.0182	-0.0073	-0.0462	0.0165	0.9585
38.2234	-20.1934	266.9154	19.1719	-92.7323	-29.1392	300.4927	14.9236	503.687	-29.8796	175.3184	21.0015	460.6409	-0.0592	0.0182	-0.0073	-0.0462	0.0165	0.9585
38.2448	-19.2357	283.4275	20.1845	-98.5429	-29.9113	317.4376	14.7594	485.6374	-29.1408	169.1214	20.4292	442.8687	-0.0592	0.0182	-0.0073	-0.0462	0.0165	0.9585
38.2661	-17.3	300.1624	21.0668	-104.5655	-30.1506	333.7467	14.9231	469.4781	-28.551	163.6417	19.8741	426.8356	-0.0592	0.0182	-0.0073	-0.0462	0.0165	0.9585
38.2875	-14.5773	317.3334	21.8633	-110.8647	-29.9893	349.7531	15.4573	454.6614	-28.1103	158.6615	19.3163	412.0529	-0.0592	0.0182	-0.0073	-0.0462	0.0165	0.9585
38.3089	-11.3883	334.9407	22.6337	-117.4117	-29.6297	365.6704	16.3725	440.544	-27.8213	153.9266	18.7519	397.9537	-0.0592	0.0182	-0.0073	-0.0462	0.0165	0.9585
38.3302	-8.1514	352.7566	23.4324	-124.0822	-29.3028	381.5547	17.6356	426.4009	-27.6667	149.1577	18.1756	383.909	-0.0592	0.0182	-0.0073	-0.0462	0.0165	0.9585
